<svg width="271" height="112" viewBox="0 0 271 112" fill="none" xmlns="http://www.w3.org/2000/svg">
<path d="M26.848 29.704H50.352V66H44.528V34.592H32.672V66H26.848V29.704ZM65.8277 66V29.704H79.3997C82.8664 29.704 85.501 30.6747 87.3037 32.616C89.141 34.5573 90.0597 37.2267 90.0597 40.624C90.0597 44.0213 89.141 46.6907 87.3037 48.632C85.501 50.5733 82.8664 51.544 79.3997 51.544H71.6517V66H65.8277ZM71.6517 46.708H78.5157C82.121 46.708 83.9237 45.044 83.9237 41.716V39.48C83.9237 36.1867 82.121 34.54 78.5157 34.54H71.6517V46.708ZM123.943 66L121.187 56.328H109.643L106.887 66H100.959L111.567 29.704H119.523L130.131 66H123.943ZM115.623 35.58H115.207L110.735 51.492H120.095L115.623 35.58ZM142.695 29.704H155.227C158.52 29.704 161.068 30.5533 162.871 32.252C164.708 33.9507 165.627 36.2733 165.627 39.22C165.627 41.3347 165.107 43.016 164.067 44.264C163.027 45.512 161.623 46.396 159.855 46.916V47.176C161.97 47.6613 163.668 48.5973 164.951 49.984C166.234 51.336 166.875 53.26 166.875 55.756C166.875 57.2467 166.632 58.616 166.147 59.864C165.662 61.112 164.968 62.204 164.067 63.14C163.166 64.0413 162.074 64.752 160.791 65.272C159.543 65.7573 158.156 66 156.631 66H142.695V29.704ZM154.863 61.528C156.804 61.528 158.295 61.1293 159.335 60.332C160.375 59.5347 160.895 58.252 160.895 56.484V54.612C160.895 52.844 160.375 51.5613 159.335 50.764C158.295 49.9667 156.804 49.568 154.863 49.568H148.415V61.528H154.863ZM154.031 45.304C155.868 45.304 157.255 44.9573 158.191 44.264C159.162 43.536 159.647 42.34 159.647 40.676V38.804C159.647 37.14 159.162 35.9613 158.191 35.268C157.255 34.54 155.868 34.176 154.031 34.176H148.415V45.304H154.031ZM177.515 61.112H180.375C181.068 60.176 181.692 59.084 182.247 57.836C182.801 56.588 183.269 55.1147 183.651 53.416C184.067 51.6827 184.379 49.724 184.587 47.54C184.795 45.356 184.899 42.86 184.899 40.052V29.704H203.047V61.112H206.947V73.8H201.591V66H182.923V73.8H177.515V61.112ZM197.327 34.592H190.255V40.728C190.255 46.0667 189.908 50.3653 189.215 53.624C188.556 56.848 187.672 59.344 186.563 61.112H197.327V34.592ZM239.322 66L236.566 56.328H225.022L222.266 66H216.338L226.946 29.704H234.902L245.51 66H239.322ZM231.002 35.58H230.586L226.114 51.492H235.474L231.002 35.58Z" fill="white"/>
<path d="M0 1H271" stroke="#4D7A77" stroke-width="2"/>
<path d="M0 95H72" stroke="#4D7A77" stroke-width="2"/>
<path d="M1 0L1 95" stroke="#4D7A77" stroke-width="2"/>
<path d="M270 0V95" stroke="#4D7A77" stroke-width="2"/>
<path d="M199 95H271" stroke="#4D7A77" stroke-width="2"/>
<path d="M81.064 92.744H87.128V94.152H82.808V101H81.064V92.744ZM99.6658 101C99.1644 101 98.7858 100.872 98.5298 100.616C98.2844 100.36 98.1351 100.024 98.0817 99.608H98.0017C97.8418 100.109 97.5484 100.499 97.1217 100.776C96.7057 101.053 96.1724 101.192 95.5217 101.192C94.6791 101.192 94.0071 100.973 93.5057 100.536C93.0044 100.088 92.7537 99.4747 92.7537 98.696C92.7537 97.896 93.0471 97.288 93.6337 96.872C94.2311 96.4453 95.1431 96.232 96.3698 96.232H97.9538V95.592C97.9538 94.472 97.3618 93.912 96.1778 93.912C95.6444 93.912 95.2124 94.0187 94.8817 94.232C94.5511 94.4347 94.2737 94.7067 94.0497 95.048L93.0097 94.2C93.2444 93.752 93.6391 93.368 94.1937 93.048C94.7484 92.7173 95.4631 92.552 96.3377 92.552C97.3831 92.552 98.2044 92.8027 98.8018 93.304C99.3991 93.8053 99.6978 94.5307 99.6978 95.48V99.624H100.738V101H99.6658ZM96.0177 99.912C96.5831 99.912 97.0471 99.784 97.4097 99.528C97.7724 99.272 97.9538 98.9413 97.9538 98.536V97.336H96.4018C95.1431 97.336 94.5137 97.7147 94.5137 98.472V98.792C94.5137 99.1653 94.6471 99.448 94.9137 99.64C95.1804 99.8213 95.5484 99.912 96.0177 99.912ZM109.691 101.192C109.073 101.192 108.518 101.091 108.027 100.888C107.547 100.685 107.137 100.397 106.795 100.024C106.465 99.6507 106.209 99.1973 106.027 98.664C105.857 98.1307 105.771 97.5333 105.771 96.872C105.771 96.2107 105.857 95.6133 106.027 95.08C106.209 94.5467 106.465 94.0933 106.795 93.72C107.137 93.3467 107.547 93.0587 108.027 92.856C108.518 92.6533 109.067 92.552 109.675 92.552C110.529 92.552 111.212 92.7333 111.723 93.096C112.246 93.4587 112.636 93.928 112.892 94.504L111.531 95.24C111.382 94.856 111.153 94.552 110.844 94.328C110.545 94.104 110.155 93.992 109.675 93.992C109.014 93.992 108.502 94.1947 108.139 94.6C107.777 94.9947 107.595 95.5227 107.595 96.184V97.56C107.595 98.2107 107.777 98.7387 108.139 99.144C108.502 99.5493 109.025 99.752 109.707 99.752C110.22 99.752 110.636 99.6347 110.956 99.4C111.286 99.1653 111.547 98.8453 111.74 98.44L113.019 99.224C112.753 99.8 112.348 100.275 111.804 100.648C111.259 101.011 110.555 101.192 109.691 101.192ZM121.301 94.152H118.405V92.744H125.957V94.152H123.045V101H121.301V94.152ZM131.439 92.744H133.183V94.152H133.279C133.524 93.6507 133.85 93.2613 134.255 92.984C134.66 92.696 135.167 92.552 135.775 92.552C136.746 92.552 137.519 92.9147 138.095 93.64C138.671 94.3653 138.959 95.4427 138.959 96.872C138.959 98.3013 138.671 99.3787 138.095 100.104C137.519 100.829 136.746 101.192 135.775 101.192C135.167 101.192 134.66 101.053 134.255 100.776C133.85 100.488 133.524 100.093 133.279 99.592H133.183V104.2H131.439V92.744ZM135.055 99.768C135.716 99.768 136.223 99.5653 136.575 99.16C136.938 98.7547 137.119 98.216 137.119 97.544V96.2C137.119 95.528 136.938 94.9893 136.575 94.584C136.223 94.1787 135.716 93.976 135.055 93.976C134.799 93.976 134.559 94.008 134.335 94.072C134.111 94.136 133.914 94.232 133.743 94.36C133.572 94.488 133.434 94.648 133.327 94.84C133.231 95.0213 133.183 95.24 133.183 95.496V98.248C133.183 98.504 133.231 98.728 133.327 98.92C133.434 99.1013 133.572 99.256 133.743 99.384C133.914 99.512 134.111 99.608 134.335 99.672C134.559 99.736 134.799 99.768 135.055 99.768ZM147.769 101.192C147.161 101.192 146.611 101.091 146.121 100.888C145.641 100.685 145.23 100.397 144.889 100.024C144.558 99.6507 144.302 99.1973 144.121 98.664C143.939 98.1307 143.849 97.5333 143.849 96.872C143.849 96.2107 143.939 95.6133 144.121 95.08C144.302 94.5467 144.558 94.0933 144.889 93.72C145.23 93.3467 145.641 93.0587 146.121 92.856C146.611 92.6533 147.161 92.552 147.769 92.552C148.377 92.552 148.921 92.6533 149.401 92.856C149.891 93.0587 150.302 93.3467 150.633 93.72C150.974 94.0933 151.235 94.5467 151.417 95.08C151.598 95.6133 151.689 96.2107 151.689 96.872C151.689 97.5333 151.598 98.1307 151.417 98.664C151.235 99.1973 150.974 99.6507 150.633 100.024C150.302 100.397 149.891 100.685 149.401 100.888C148.921 101.091 148.377 101.192 147.769 101.192ZM147.769 99.816C148.409 99.816 148.915 99.624 149.289 99.24C149.673 98.8453 149.865 98.264 149.865 97.496V96.248C149.865 95.48 149.673 94.904 149.289 94.52C148.915 94.1253 148.409 93.928 147.769 93.928C147.129 93.928 146.617 94.1253 146.233 94.52C145.859 94.904 145.673 95.48 145.673 96.248V97.496C145.673 98.264 145.859 98.8453 146.233 99.24C146.617 99.624 147.129 99.816 147.769 99.816ZM160.578 101.192C159.992 101.192 159.458 101.091 158.978 100.888C158.509 100.685 158.104 100.381 157.762 99.976C157.432 99.5707 157.176 99.064 156.994 98.456C156.813 97.8373 156.722 97.1173 156.722 96.296C156.722 95.048 156.808 93.9867 156.978 93.112C157.149 92.2267 157.421 91.5067 157.794 90.952C158.168 90.3867 158.642 89.9653 159.218 89.688C159.805 89.4107 160.509 89.2453 161.33 89.192L163.842 89.048V90.68L161.362 90.824C160.861 90.856 160.44 90.9413 160.098 91.08C159.768 91.208 159.496 91.416 159.282 91.704C159.069 91.992 158.904 92.3653 158.786 92.824C158.68 93.272 158.605 93.832 158.562 94.504H158.658C158.861 93.9707 159.154 93.56 159.538 93.272C159.922 92.984 160.418 92.84 161.026 92.84C161.528 92.84 161.986 92.9307 162.402 93.112C162.829 93.2933 163.192 93.56 163.49 93.912C163.789 94.2533 164.018 94.68 164.178 95.192C164.349 95.704 164.434 96.2853 164.434 96.936C164.434 97.576 164.344 98.1627 164.162 98.696C163.981 99.2187 163.72 99.6667 163.378 100.04C163.048 100.403 162.642 100.685 162.162 100.888C161.693 101.091 161.165 101.192 160.578 101.192ZM160.562 99.816C161.17 99.816 161.661 99.624 162.034 99.24C162.418 98.8453 162.61 98.296 162.61 97.592V96.472C162.61 95.7253 162.429 95.1653 162.066 94.792C161.704 94.408 161.202 94.216 160.562 94.216C159.912 94.216 159.41 94.4027 159.058 94.776C158.717 95.1387 158.546 95.624 158.546 96.232V97.56C158.546 98.296 158.728 98.856 159.09 99.24C159.464 99.624 159.954 99.816 160.562 99.816ZM176.428 101C175.927 101 175.548 100.872 175.292 100.616C175.047 100.36 174.898 100.024 174.844 99.608H174.764C174.604 100.109 174.311 100.499 173.884 100.776C173.468 101.053 172.935 101.192 172.284 101.192C171.442 101.192 170.77 100.973 170.268 100.536C169.767 100.088 169.516 99.4747 169.516 98.696C169.516 97.896 169.81 97.288 170.396 96.872C170.994 96.4453 171.906 96.232 173.132 96.232H174.716V95.592C174.716 94.472 174.124 93.912 172.94 93.912C172.407 93.912 171.975 94.0187 171.644 94.232C171.314 94.4347 171.036 94.7067 170.812 95.048L169.772 94.2C170.007 93.752 170.402 93.368 170.956 93.048C171.511 92.7173 172.226 92.552 173.1 92.552C174.146 92.552 174.967 92.8027 175.564 93.304C176.162 93.8053 176.46 94.5307 176.46 95.48V99.624H177.5V101H176.428ZM172.78 99.912C173.346 99.912 173.81 99.784 174.172 99.528C174.535 99.272 174.716 98.9413 174.716 98.536V97.336H173.164C171.906 97.336 171.276 97.7147 171.276 98.472V98.792C171.276 99.1653 171.41 99.448 171.676 99.64C171.943 99.8213 172.311 99.912 172.78 99.912ZM182.614 92.744H184.358V94.152H184.454C184.699 93.6507 185.025 93.2613 185.43 92.984C185.835 92.696 186.342 92.552 186.95 92.552C187.921 92.552 188.694 92.9147 189.27 93.64C189.846 94.3653 190.134 95.4427 190.134 96.872C190.134 98.3013 189.846 99.3787 189.27 100.104C188.694 100.829 187.921 101.192 186.95 101.192C186.342 101.192 185.835 101.053 185.43 100.776C185.025 100.488 184.699 100.093 184.454 99.592H184.358V104.2H182.614V92.744ZM186.23 99.768C186.891 99.768 187.398 99.5653 187.75 99.16C188.113 98.7547 188.294 98.216 188.294 97.544V96.2C188.294 95.528 188.113 94.9893 187.75 94.584C187.398 94.1787 186.891 93.976 186.23 93.976C185.974 93.976 185.734 94.008 185.51 94.072C185.286 94.136 185.089 94.232 184.918 94.36C184.747 94.488 184.609 94.648 184.502 94.84C184.406 95.0213 184.358 95.24 184.358 95.496V98.248C184.358 98.504 184.406 98.728 184.502 98.92C184.609 99.1013 184.747 99.256 184.918 99.384C185.089 99.512 185.286 99.608 185.51 99.672C185.734 99.736 185.974 99.768 186.23 99.768Z" fill="white"/>
</svg>
